<svg width="24" height="25" viewBox="0 0 24 25" fill="none" xmlns="http://www.w3.org/2000/svg">
<path fill-rule="evenodd" clip-rule="evenodd" d="M1 4.05457C1 3.50228 1.44772 3.05457 2 3.05457H8C9.6356 3.05457 11.0878 3.8399 12 5.05407C12.9122 3.8399 14.3644 3.05457 16 3.05457H22C22.5523 3.05457 23 3.50228 23 4.05457V19.0546C23 19.6068 22.5523 20.0546 22 20.0546H15C13.8954 20.0546 13 20.95 13 22.0546C13 22.6068 12.5523 23.0546 12 23.0546C11.4477 23.0546 11 22.6068 11 22.0546C11 20.95 10.1046 20.0546 9 20.0546H2C1.44772 20.0546 1 19.6068 1 19.0546V4.05457ZM11 18.5897C10.4117 18.2494 9.72857 18.0546 9 18.0546H3V5.05457H8C9.65687 5.05457 11 6.3977 11 8.05457V18.5897ZM13 8.05457V18.5897C13.5883 18.2494 14.2714 18.0546 15 18.0546H21V5.05457H16C14.3431 5.05457 13 6.3977 13 8.05457Z" fill="#FBF6F0"/>
</svg>
