<svg width="34" height="9" viewBox="0 0 34 9" fill="none" xmlns="http://www.w3.org/2000/svg">
<line x1="11.9934" y1="0.506714" x2="11.9934" y2="7.70064" stroke="#BDBDBD" stroke-linecap="round"/>
<line x1="0.625" y1="2.41551" x2="0.624999" y2="7.70064" stroke="#BDBDBD" stroke-linecap="round"/>
<line x1="28.2336" y1="0.506714" x2="28.2336" y2="7.70064" stroke="#BDBDBD" stroke-linecap="round"/>
<line x1="19.0308" y1="2.55528" x2="19.0308" y2="7.70073" stroke="#BDBDBD" stroke-linecap="round"/>
<line x1="7.12158" y1="3.98677" x2="7.12158" y2="7.70061" stroke="#BDBDBD" stroke-linecap="round"/>
<line x1="16.8652" y1="2.86554" x2="16.8652" y2="7.70061" stroke="#BDBDBD" stroke-linecap="round"/>
<line x1="4.95557" y1="4.22485" x2="4.95557" y2="7.70062" stroke="#BDBDBD" stroke-linecap="round"/>
<line x1="32.5645" y1="2.86554" x2="32.5645" y2="7.70061" stroke="#BDBDBD" stroke-linecap="round"/>
<line x1="23.3618" y1="4.3244" x2="23.3618" y2="7.7007" stroke="#BDBDBD" stroke-linecap="round"/>
<line x1="11.4517" y1="5.34381" x2="11.4517" y2="7.70064" stroke="#BDBDBD" stroke-linecap="round"/>
<line x1="27.6919" y1="4.3244" x2="27.6919" y2="7.7007" stroke="#BDBDBD" stroke-linecap="round"/>
<line x1="0.5" y1="-0.5" x2="7.69392" y2="-0.5" transform="matrix(4.23545e-08 1 1 -4.51117e-08 15.8247 0.00671387)" stroke="#BDBDBD" stroke-linecap="round"/>
<line x1="0.5" y1="-0.5" x2="5.78512" y2="-0.5" transform="matrix(1.44078e-07 1 1 -1.32615e-08 3.91455 1.91551)" stroke="#BDBDBD" stroke-linecap="round"/>
<line x1="0.5" y1="-0.5" x2="7.69392" y2="-0.5" transform="matrix(4.23545e-08 1 1 -4.51117e-08 31.5229 0.00671387)" stroke="#BDBDBD" stroke-linecap="round"/>
<line x1="0.5" y1="-0.5" x2="5.64544" y2="-0.5" transform="matrix(2.11633e-07 1 1 -9.02831e-09 22.3203 2.05528)" stroke="#BDBDBD" stroke-linecap="round"/>
<line x1="0.5" y1="-0.5" x2="4.21384" y2="-0.5" transform="matrix(2.75906e-07 1 1 -6.92514e-09 10.4102 3.48677)" stroke="#BDBDBD" stroke-linecap="round"/>
<line x1="0.5" y1="-0.5" x2="5.64544" y2="-0.5" transform="matrix(2.11633e-07 1 1 -9.02831e-09 26.6509 2.05528)" stroke="#BDBDBD" stroke-linecap="round"/>
<line x1="12.5342" y1="2.86554" x2="12.5342" y2="7.70061" stroke="#BDBDBD" stroke-linecap="round"/>
<line x1="1.1665" y1="4.22485" x2="1.1665" y2="7.70062" stroke="#BDBDBD" stroke-linecap="round"/>
<line x1="28.7749" y1="2.86554" x2="28.7749" y2="7.70061" stroke="#BDBDBD" stroke-linecap="round"/>
<line x1="19.5723" y1="4.3244" x2="19.5723" y2="7.7007" stroke="#BDBDBD" stroke-linecap="round"/>
<line x1="7.6626" y1="5.34381" x2="7.6626" y2="7.70064" stroke="#BDBDBD" stroke-linecap="round"/>
<line x1="17.4067" y1="4.54536" x2="17.4067" y2="7.70064" stroke="#BDBDBD" stroke-linecap="round"/>
<line x1="5.49756" y1="5.51335" x2="5.49756" y2="7.70064" stroke="#BDBDBD" stroke-linecap="round"/>
<line x1="33.1064" y1="4.54536" x2="33.1064" y2="7.70064" stroke="#BDBDBD" stroke-linecap="round"/>
<line x1="23.9033" y1="5.58417" x2="23.9033" y2="7.70062" stroke="#BDBDBD" stroke-linecap="round"/>
<line x1="13.0762" y1="6.31013" x2="13.0762" y2="7.7006" stroke="#BDBDBD" stroke-linecap="round"/>
<line x1="0.5" y1="-0.5" x2="5.33507" y2="-0.5" transform="matrix(-1.58725e-07 1 1 1.20377e-08 15.2827 2.36554)" stroke="#BDBDBD" stroke-linecap="round"/>
<line x1="0.5" y1="-0.5" x2="3.97577" y2="-0.5" transform="matrix(-2.06929e-07 1 1 9.23352e-09 3.37354 3.72485)" stroke="#BDBDBD" stroke-linecap="round"/>
<line x1="0.5" y1="-0.5" x2="5.33507" y2="-0.5" transform="matrix(-1.58725e-07 1 1 1.20377e-08 30.9819 2.36554)" stroke="#BDBDBD" stroke-linecap="round"/>
<line x1="0.5" y1="-0.5" x2="3.8763" y2="-0.5" transform="matrix(-2.11633e-07 1 1 9.02831e-09 21.7793 3.8244)" stroke="#BDBDBD" stroke-linecap="round"/>
<line x1="0.5" y1="-0.5" x2="2.85683" y2="-0.5" transform="matrix(-2.75906e-07 1 1 6.92514e-09 9.86914 4.84381)" stroke="#BDBDBD" stroke-linecap="round"/>
<line x1="0.5" y1="-0.5" x2="3.8763" y2="-0.5" transform="matrix(-2.11633e-07 1 1 9.02831e-09 26.1094 3.8244)" stroke="#BDBDBD" stroke-linecap="round"/>
<line x1="13.6172" y1="4.60374" x2="13.6172" y2="7.70071" stroke="#BDBDBD" stroke-linecap="round"/>
<line x1="1.70703" y1="5.55804" x2="1.70703" y2="7.70061" stroke="#BDBDBD" stroke-linecap="round"/>
<line x1="29.3159" y1="4.60374" x2="29.3159" y2="7.70071" stroke="#BDBDBD" stroke-linecap="round"/>
<line x1="20.1133" y1="5.62793" x2="20.1133" y2="7.70065" stroke="#BDBDBD" stroke-linecap="round"/>
<line x1="8.2041" y1="6.34373" x2="8.2041" y2="7.70066" stroke="#BDBDBD" stroke-linecap="round"/>
<line x1="17.9482" y1="5.78305" x2="17.9482" y2="7.70058" stroke="#BDBDBD" stroke-linecap="round"/>
<line x1="6.03857" y1="6.46277" x2="6.03857" y2="7.70065" stroke="#BDBDBD" stroke-linecap="round"/>
<line x1="33.647" y1="5.78305" x2="33.647" y2="7.70058" stroke="#BDBDBD" stroke-linecap="round"/>
<line x1="24.4443" y1="6.51244" x2="24.4443" y2="7.70059" stroke="#BDBDBD" stroke-linecap="round"/>
<line x1="0.5" y1="-0.5" x2="3.59696" y2="-0.5" transform="matrix(-1.58725e-07 1 1 1.20377e-08 14.7412 4.10374)" stroke="#BDBDBD" stroke-linecap="round"/>
<line x1="0.5" y1="-0.5" x2="2.64256" y2="-0.5" transform="matrix(-2.06929e-07 1 1 9.23351e-09 2.83154 5.05804)" stroke="#BDBDBD" stroke-linecap="round"/>
<line x1="0.5" y1="-0.5" x2="3.59696" y2="-0.5" transform="matrix(-1.58725e-07 1 1 1.20377e-08 30.4399 4.10374)" stroke="#BDBDBD" stroke-linecap="round"/>
<line x1="0.5" y1="-0.5" x2="2.57272" y2="-0.5" transform="matrix(-2.11633e-07 1 1 9.02831e-09 21.2373 5.12793)" stroke="#BDBDBD" stroke-linecap="round"/>
<line x1="0.5" y1="-0.5" x2="1.85692" y2="-0.5" transform="matrix(-2.75906e-07 1 1 6.92514e-09 9.32764 5.84373)" stroke="#BDBDBD" stroke-linecap="round"/>
<line x1="0.5" y1="-0.5" x2="2.57272" y2="-0.5" transform="matrix(-2.11633e-07 1 1 9.02831e-09 25.5684 5.12793)" stroke="#BDBDBD" stroke-linecap="round"/>
<line x1="14.1582" y1="6.65211" x2="14.1582" y2="7.7006" stroke="#BDBDBD" stroke-linecap="round"/>
<line x1="2.24902" y1="7.12932" x2="2.24902" y2="7.7006" stroke="#BDBDBD" stroke-linecap="round"/>
<line x1="29.8579" y1="6.65211" x2="29.8579" y2="7.7006" stroke="#BDBDBD" stroke-linecap="round"/>
<line x1="20.6553" y1="7.16426" x2="20.6553" y2="7.70062" stroke="#BDBDBD" stroke-linecap="round"/>
<line x1="8.74512" y1="7.5222" x2="8.74512" y2="7.70066" stroke="#BDBDBD" stroke-linecap="round"/>
<line x1="18.4888" y1="7.24193" x2="18.4888" y2="7.70069" stroke="#BDBDBD" stroke-linecap="round"/>
<line x1="6.58008" y1="7.58173" x2="6.58008" y2="7.70067" stroke="#BDBDBD" stroke-linecap="round"/>
<line x1="34.1885" y1="7.24193" x2="34.1885" y2="7.70069" stroke="#BDBDBD" stroke-linecap="round"/>
<line x1="24.9858" y1="7.60651" x2="24.9858" y2="7.70058" stroke="#BDBDBD" stroke-linecap="round"/>
<line x1="0.5" y1="-0.5" x2="1.54848" y2="-0.5" transform="matrix(-1.58724e-07 1 1 1.20377e-08 14.2002 6.15211)" stroke="#BDBDBD" stroke-linecap="round"/>
<line x1="0.5" y1="-0.5" x2="1.07128" y2="-0.5" transform="matrix(-2.06929e-07 1 1 9.23351e-09 2.29053 6.62932)" stroke="#BDBDBD" stroke-linecap="round"/>
<line x1="0.5" y1="-0.5" x2="1.54848" y2="-0.5" transform="matrix(-1.58724e-07 1 1 1.20377e-08 29.8989 6.15211)" stroke="#BDBDBD" stroke-linecap="round"/>
<line x1="0.5" y1="-0.5" x2="1.03636" y2="-0.5" transform="matrix(-2.11633e-07 1 1 9.0283e-09 20.6963 6.66426)" stroke="#BDBDBD" stroke-linecap="round"/>
<line x1="0.5" y1="-0.5" x2="0.678461" y2="-0.5" transform="matrix(-2.75906e-07 1 1 6.92513e-09 8.78662 7.0222)" stroke="#BDBDBD" stroke-linecap="round"/>
<line x1="0.5" y1="-0.5" x2="1.03636" y2="-0.5" transform="matrix(-2.11633e-07 1 1 9.0283e-09 25.0269 6.66426)" stroke="#BDBDBD" stroke-linecap="round"/>
</svg>
