<svg width="242" height="69" viewBox="0 0 242 69" fill="none" xmlns="http://www.w3.org/2000/svg">
<line x1="198.009" y1="23.6416" x2="211.373" y2="23.6416" stroke="#C09C3F" stroke-width="1.21672"/>
<line x1="205.789" y1="9.30629" x2="221.323" y2="9.30629" stroke="#C09C3F" stroke-width="0.60836"/>
<line x1="187.639" y1="9.30629" x2="203.255" y2="9.30629" stroke="#C09C3F" stroke-width="0.60836"/>
<line x1="215.077" y1="34.8574" x2="222.478" y2="34.8574" stroke="#C09C3F" stroke-width="0.60836"/>
<line x1="197.938" y1="43.1094" x2="211.302" y2="43.1094" stroke="#C09C3F" stroke-width="1.21672"/>
<line x1="218.849" y1="49.458" x2="222.479" y2="49.458" stroke="#C09C3F" stroke-width="0.60836"/>
<line x1="198.009" y1="33.3754" x2="211.373" y2="33.3754" stroke="#C09C3F" stroke-width="1.21672"/>
<line x1="215.148" y1="16.6066" x2="222.549" y2="16.6066" stroke="#C09C3F" stroke-width="0.60836"/>
<line x1="186.832" y1="16.6066" x2="194.234" y2="16.6066" stroke="#C09C3F" stroke-width="0.60836"/>
<line x1="215.077" y1="42.1577" x2="222.478" y2="42.1577" stroke="#C09C3F" stroke-width="0.60836"/>
<line x1="215.148" y1="27.5571" x2="222.549" y2="27.5571" stroke="#C09C3F" stroke-width="0.60836"/>
<line x1="186.832" y1="27.5571" x2="194.234" y2="27.5571" stroke="#C09C3F" stroke-width="0.60836"/>
<line x1="198.009" y1="28.5085" x2="211.373" y2="28.5085" stroke="#C09C3F" stroke-width="1.21672"/>
<line x1="215.148" y1="12.9564" x2="222.549" y2="12.9564" stroke="#C09C3F" stroke-width="0.60836"/>
<line x1="186.832" y1="12.9564" x2="194.234" y2="12.9564" stroke="#C09C3F" stroke-width="0.60836"/>
<line x1="215.077" y1="38.5076" x2="222.478" y2="38.5076" stroke="#C09C3F" stroke-width="0.60836"/>
<line x1="197.938" y1="47.9762" x2="211.302" y2="47.9762" stroke="#C09C3F" stroke-width="1.21672"/>
<line x1="215.148" y1="23.9069" x2="222.549" y2="23.9069" stroke="#C09C3F" stroke-width="0.60836"/>
<line x1="186.832" y1="23.9069" x2="194.234" y2="23.9069" stroke="#C09C3F" stroke-width="0.60836"/>
<line x1="198.009" y1="53.1082" x2="214.148" y2="53.1082" stroke="#C09C3F" stroke-width="0.60836"/>
<line x1="198.009" y1="56.7584" x2="214.148" y2="56.7584" stroke="#C09C3F" stroke-width="0.60836"/>
<line x1="197.938" y1="38.2423" x2="211.302" y2="38.2423" stroke="#C09C3F" stroke-width="1.21672"/>
<line x1="215.148" y1="20.2567" x2="222.549" y2="20.2567" stroke="#C09C3F" stroke-width="0.60836"/>
<line x1="186.832" y1="20.2567" x2="194.234" y2="20.2567" stroke="#C09C3F" stroke-width="0.60836"/>
<line x1="215.077" y1="45.8079" x2="222.478" y2="45.8079" stroke="#C09C3F" stroke-width="0.60836"/>
<line x1="215.148" y1="31.2072" x2="222.549" y2="31.2072" stroke="#C09C3F" stroke-width="0.60836"/>
<line x1="186.832" y1="31.2072" x2="194.234" y2="31.2072" stroke="#C09C3F" stroke-width="0.60836"/>
<line x1="198.009" y1="26.0751" x2="211.373" y2="26.0751" stroke="#C09C3F" stroke-width="1.21672"/>
<line x1="205.789" y1="11.1314" x2="222.549" y2="11.1314" stroke="#C09C3F" stroke-width="0.60836"/>
<line x1="186.832" y1="11.1314" x2="203.254" y2="11.1314" stroke="#C09C3F" stroke-width="0.60836"/>
<line x1="215.077" y1="36.6825" x2="222.478" y2="36.6825" stroke="#C09C3F" stroke-width="0.60836"/>
<line x1="197.938" y1="45.5428" x2="211.302" y2="45.5428" stroke="#C09C3F" stroke-width="1.21672"/>
<line x1="215.148" y1="22.0819" x2="222.549" y2="22.0819" stroke="#C09C3F" stroke-width="0.60836"/>
<line x1="186.832" y1="22.0819" x2="194.234" y2="22.0819" stroke="#C09C3F" stroke-width="0.60836"/>
<line x1="198.009" y1="54.9333" x2="214.148" y2="54.9333" stroke="#C09C3F" stroke-width="0.60836"/>
<line x1="197.938" y1="35.8089" x2="211.302" y2="35.8089" stroke="#C09C3F" stroke-width="1.21672"/>
<line x1="215.148" y1="18.4317" x2="222.549" y2="18.4317" stroke="#C09C3F" stroke-width="0.60836"/>
<line x1="186.832" y1="18.4317" x2="194.234" y2="18.4317" stroke="#C09C3F" stroke-width="0.60836"/>
<line x1="215.077" y1="43.9828" x2="222.478" y2="43.9828" stroke="#C09C3F" stroke-width="0.60836"/>
<line x1="215.148" y1="29.3822" x2="222.549" y2="29.3822" stroke="#C09C3F" stroke-width="0.60836"/>
<line x1="186.832" y1="29.3822" x2="194.234" y2="29.3822" stroke="#C09C3F" stroke-width="0.60836"/>
<line x1="198.009" y1="30.942" x2="211.373" y2="30.942" stroke="#C09C3F" stroke-width="1.21672"/>
<line x1="215.148" y1="14.7815" x2="222.549" y2="14.7815" stroke="#C09C3F" stroke-width="0.60836"/>
<line x1="186.832" y1="14.7815" x2="194.234" y2="14.7815" stroke="#C09C3F" stroke-width="0.60836"/>
<line x1="215.077" y1="40.3327" x2="222.478" y2="40.3327" stroke="#C09C3F" stroke-width="0.60836"/>
<line x1="215.148" y1="25.732" x2="222.549" y2="25.732" stroke="#C09C3F" stroke-width="0.60836"/>
<line x1="186.832" y1="25.732" x2="194.234" y2="25.732" stroke="#C09C3F" stroke-width="0.60836"/>
<line x1="197.938" y1="40.6759" x2="211.302" y2="40.6759" stroke="#C09C3F" stroke-width="1.21672"/>
<line x1="215.077" y1="47.633" x2="222.478" y2="47.633" stroke="#C09C3F" stroke-width="0.60836"/>
<line x1="215.077" y1="33.0323" x2="222.478" y2="33.0323" stroke="#C09C3F" stroke-width="0.60836"/>
<line x1="186.761" y1="33.0323" x2="194.162" y2="33.0323" stroke="#C09C3F" stroke-width="0.60836"/>
<line x1="186.761" y1="34.8574" x2="194.162" y2="34.8574" stroke="#C09C3F" stroke-width="0.60836"/>
<line x1="186.761" y1="36.6825" x2="194.162" y2="36.6825" stroke="#C09C3F" stroke-width="0.60836"/>
<rect x="198.173" y="15.1481" width="13.0368" height="5.72701" fill="#C09C3F" stroke="#C09C3F" stroke-width="0.327038"/>
<path d="M216.022 49.7838C216.028 49.51 216.347 49.3638 216.558 49.5386L225.28 56.7722C225.529 56.9786 225.36 57.3823 225.038 57.3493L219.743 56.8051C219.624 56.793 219.509 56.8458 219.441 56.9431L216.392 61.307C216.207 61.572 215.791 61.4364 215.797 61.1132L216.022 49.7838Z" fill="#66473A"/>
<path d="M64.8669 43.9009C64.8669 43.949 64.8549 44.021 64.8309 44.117C64.8069 44.205 64.7789 44.273 64.7469 44.3211C64.6989 44.4331 64.6548 44.5291 64.6148 44.6091C64.5748 44.6812 64.4868 44.8052 64.3508 44.9813C64.2707 45.1013 64.2147 45.2773 64.1827 45.5094C64.1507 45.7335 64.1187 45.9095 64.0867 46.0376C64.0867 46.0936 64.0867 46.1776 64.0867 46.2897C64.0867 46.4017 64.0947 46.5217 64.1107 46.6498C64.1267 46.7698 64.1427 46.8978 64.1587 47.0339C64.1747 47.1619 64.1827 47.2579 64.1827 47.322C64.2147 47.538 64.2507 47.7821 64.2907 48.0542C64.3307 48.3183 64.3668 48.5743 64.3988 48.8224L64.6508 50.3469C64.6668 50.4589 64.6909 50.6109 64.7229 50.803C64.7549 50.9871 64.7709 51.1311 64.7709 51.2351C64.7709 51.3952 64.7589 51.5952 64.7349 51.8353C64.7109 52.0674 64.6588 52.2594 64.5788 52.4115C64.5308 52.5235 64.4548 52.6636 64.3508 52.8316C64.2547 52.9917 64.1667 53.1117 64.0867 53.1917C63.9506 53.3438 63.7666 53.5118 63.5345 53.6959C63.3104 53.8719 63.1104 53.992 62.9343 54.056C62.8783 54.088 62.8143 54.08 62.7423 54.032C62.6702 53.9839 62.6182 53.9279 62.5862 53.8639L62.5622 53.8159C62.5302 53.7439 62.5222 53.6919 62.5382 53.6599C62.6662 53.4198 62.7463 53.1077 62.7783 52.7236C62.8103 52.3315 62.8103 51.9994 62.7783 51.7273L62.4422 48.0062C62.3862 47.2379 62.4422 46.6017 62.6102 46.0976C62.6903 45.8495 62.7823 45.6255 62.8863 45.4254C62.9983 45.2173 63.1344 45.0373 63.2944 44.8852C63.4305 44.7572 63.4625 44.6372 63.3905 44.5251C63.3264 44.3891 63.2144 44.3211 63.0544 44.3211H56.5844C56.4084 44.3211 56.2003 44.3171 55.9602 44.3091C55.7202 44.3011 55.5361 44.233 55.4081 44.105C55.208 43.9209 55.088 43.7089 55.048 43.4688C55.008 43.2207 54.988 42.9647 54.988 42.7006C54.988 42.5165 54.988 42.3005 54.988 42.0524C54.988 41.7963 55.004 41.5522 55.036 41.3202C55.068 41.1121 55.116 40.9361 55.18 40.792C55.252 40.64 55.3281 40.5039 55.4081 40.3839C55.4241 40.3199 55.4801 40.2879 55.5761 40.2879H55.9242C56.0363 40.2879 56.1043 40.3039 56.1283 40.3359C56.1523 40.3679 56.1643 40.4039 56.1643 40.4439C56.1643 40.5559 56.1723 40.676 56.1883 40.804C56.2043 40.924 56.2483 41.0081 56.3204 41.0561C56.4164 41.1201 56.4804 41.1521 56.5124 41.1521H56.8125H63.5225C63.8986 41.1521 64.1987 41.2201 64.4228 41.3562C64.6548 41.4842 64.7949 41.8163 64.8429 42.3525C64.8589 42.4725 64.8669 42.6686 64.8669 42.9407C64.8669 43.2047 64.8669 43.4048 64.8669 43.5408V43.9009ZM57.4487 47.7901C57.4327 47.8701 57.4007 47.9421 57.3527 48.0062C57.2486 48.1422 57.1766 48.3383 57.1366 48.5943C57.0966 48.8424 57.1166 49.2385 57.1966 49.7827L57.3767 50.959C57.4087 51.2871 57.4167 51.5792 57.4007 51.8353C57.3847 52.0914 57.3607 52.2834 57.3287 52.4115C57.2726 52.5715 57.2006 52.7316 57.1126 52.8916C57.0246 53.0437 56.8885 53.2117 56.7045 53.3958C56.5764 53.5238 56.4244 53.6478 56.2483 53.7679C56.0803 53.8799 55.9402 53.9679 55.8282 54.032C55.6602 54.128 55.5201 54.152 55.4081 54.104C55.3761 54.088 55.3321 54.044 55.276 53.9719C55.228 53.8999 55.224 53.8479 55.264 53.8159C55.3441 53.6639 55.3841 53.4878 55.3841 53.2877C55.3841 53.0797 55.3841 52.8956 55.3841 52.7356V49.2905C55.3841 48.9464 55.4161 48.6544 55.4801 48.4143C55.5441 48.1742 55.6161 48.0062 55.6962 47.9101C55.7842 47.8301 55.8922 47.7461 56.0203 47.6581C56.1483 47.562 56.2483 47.498 56.3204 47.466C56.4484 47.418 56.5804 47.386 56.7165 47.37C56.8605 47.354 57.0206 47.346 57.1966 47.346C57.2686 47.346 57.3367 47.378 57.4007 47.442C57.4167 47.474 57.4367 47.534 57.4607 47.622C57.4847 47.7021 57.4807 47.7581 57.4487 47.7901ZM70.6762 56.1206H75.2735C75.4816 56.1206 75.5856 56.2406 75.5856 56.4807V57.2729C75.5856 57.521 75.4816 57.645 75.2735 57.645H73.377C73.377 58.0212 73.449 58.3733 73.593 58.7014L73.8691 59.3135C73.9331 59.4416 73.9651 59.5816 73.9651 59.7337C73.9651 60.0137 73.8651 60.2458 73.665 60.4299C73.473 60.6219 73.2449 60.718 72.9808 60.718C72.7088 60.718 72.4767 60.6179 72.2846 60.4179C72.0846 60.2258 71.9845 59.9977 71.9845 59.7337C71.9845 59.5816 72.0166 59.4416 72.0806 59.3135L72.3447 58.7014C72.5127 58.3412 72.5967 57.9891 72.5967 57.645H70.6762C70.4601 57.645 70.3521 57.521 70.3521 57.2729V56.4807C70.3521 56.2406 70.4601 56.1206 70.6762 56.1206ZM78.454 44.081C78.454 44.113 78.45 44.145 78.442 44.177C78.434 44.209 78.422 44.249 78.406 44.2971C78.374 44.3771 78.314 44.4931 78.2259 44.6452C78.1379 44.7892 78.0499 44.9372 77.9619 45.0893C77.8978 45.2173 77.8538 45.3574 77.8298 45.5094C77.8058 45.6535 77.7698 45.7895 77.7218 45.9175C77.6898 46.0216 77.6818 46.1656 77.6978 46.3497C77.7138 46.5257 77.7218 46.6858 77.7218 46.8298C77.7378 46.9579 77.7578 47.1219 77.7818 47.322C77.8058 47.522 77.8258 47.6861 77.8418 47.8141L78.2379 50.4429C78.2539 50.4909 78.2619 50.5549 78.2619 50.6349C78.2619 50.707 78.2699 50.783 78.286 50.863C78.302 50.943 78.314 51.0111 78.322 51.0671C78.33 51.1231 78.334 51.1791 78.334 51.2351C78.334 51.3952 78.326 51.5512 78.31 51.7033C78.294 51.8473 78.2619 51.9834 78.2139 52.1114C78.1499 52.2954 78.0819 52.4715 78.0099 52.6395C77.9458 52.7996 77.8738 52.9276 77.7938 53.0237C77.6178 53.2557 77.4377 53.4638 77.2536 53.6478C77.0776 53.8239 76.8575 53.9599 76.5934 54.056C76.4974 54.104 76.3894 54.072 76.2693 53.9599L76.2213 53.9119C76.2053 53.8799 76.1933 53.8399 76.1853 53.7919C76.1773 53.7359 76.1733 53.6919 76.1733 53.6599C76.2854 53.4358 76.3654 53.1437 76.4134 52.7836C76.4694 52.4235 76.4814 52.0034 76.4494 51.5232L76.1493 47.322C76.1173 46.9458 76.1413 46.5377 76.2213 46.0976C76.2533 45.8975 76.3254 45.6655 76.4374 45.4014C76.5574 45.1373 76.6975 44.9332 76.8575 44.7892C76.9456 44.7092 76.9896 44.6532 76.9896 44.6212C76.9896 44.5891 76.9696 44.5371 76.9295 44.4651C76.8975 44.3851 76.8615 44.3411 76.8215 44.3331C76.7815 44.3251 76.7135 44.3211 76.6175 44.3211H71.5519C71.2238 44.3851 70.9878 44.5291 70.8437 44.7532C70.7077 44.9773 70.5997 45.2934 70.5196 45.7015C70.5036 45.7815 70.4916 45.8975 70.4836 46.0496C70.4756 46.1936 70.4716 46.3457 70.4716 46.5057C70.4716 46.6578 70.4756 46.8058 70.4836 46.9498C70.4916 47.0859 70.4956 47.2019 70.4956 47.298L70.7357 51.0311C70.7517 51.2151 70.7477 51.4112 70.7237 51.6192C70.6997 51.8193 70.6717 51.9834 70.6397 52.1114C70.5917 52.2794 70.5236 52.4595 70.4356 52.6516C70.3476 52.8356 70.2035 53.0437 70.0035 53.2757C69.8754 53.4358 69.7234 53.5918 69.5473 53.7439C69.3793 53.8879 69.1712 54 68.9232 54.08C68.8431 54.096 68.7591 54.056 68.6711 53.9599C68.6231 53.8959 68.5951 53.8479 68.5871 53.8159C68.5791 53.7839 68.5831 53.7399 68.5991 53.6839C68.7671 53.2277 68.8511 52.7796 68.8511 52.3395V47.8861C68.8511 47.542 68.8751 47.1739 68.9232 46.7818C68.9712 46.3897 69.0752 46.0296 69.2352 45.7015C69.3073 45.5654 69.3993 45.4054 69.5113 45.2213C69.6234 45.0293 69.7314 44.8852 69.8354 44.7892C69.9475 44.6932 69.9715 44.5931 69.9074 44.4891C69.8434 44.3771 69.7594 44.3211 69.6554 44.3211H69.2953C69.2072 44.3211 69.1232 44.3011 69.0432 44.261C68.9632 44.221 68.9072 44.185 68.8751 44.153C68.6911 43.953 68.5831 43.7409 68.551 43.5168C68.519 43.2848 68.503 43.0367 68.503 42.7726C68.503 42.2524 68.523 41.8043 68.563 41.4282C68.6031 41.0441 68.7151 40.716 68.8991 40.4439C68.9472 40.3719 69.0032 40.3359 69.0672 40.3359H69.4633C69.5593 40.3359 69.6194 40.3559 69.6434 40.3959C69.6674 40.4279 69.6794 40.4599 69.6794 40.4919C69.6794 40.604 69.6914 40.716 69.7154 40.828C69.7394 40.9321 69.7794 41.0081 69.8354 41.0561C69.9315 41.1201 70.0115 41.1521 70.0755 41.1521H70.3996H77.2776C77.6057 41.1521 77.8698 41.2321 78.0699 41.3922C78.2779 41.5442 78.398 41.8403 78.43 42.2805C78.43 42.3285 78.43 42.4285 78.43 42.5805C78.43 42.7246 78.434 42.8766 78.442 43.0367C78.45 43.1887 78.454 43.3408 78.454 43.4928C78.454 43.6369 78.454 43.7409 78.454 43.8049V44.081ZM85.7397 51.3552C85.7557 51.6352 85.7277 51.9433 85.6557 52.2794C85.5916 52.6155 85.4716 52.9196 85.2956 53.1917C85.2075 53.3438 85.0915 53.5078 84.9475 53.6839C84.8034 53.8519 84.6714 53.9759 84.5513 54.056C84.4873 54.104 84.3953 54.116 84.2753 54.092C84.1632 54.068 84.0992 54.016 84.0832 53.9359C84.0352 53.9039 84.0352 53.8639 84.0832 53.8159C84.0832 53.6318 84.0872 53.3878 84.0952 53.0837C84.1032 52.7796 84.1112 52.4595 84.1192 52.1234C84.1272 51.7873 84.1312 51.4552 84.1312 51.1271C84.1312 50.799 84.1312 50.5229 84.1312 50.2988V49.4586C84.1312 48.6424 84.1192 47.9021 84.0952 47.2379C84.0712 46.5737 84.0432 46.0296 84.0112 45.6054C83.9792 45.3254 83.9432 45.0933 83.9031 44.9092C83.8631 44.7172 83.7751 44.5691 83.6391 44.4651C83.543 44.3851 83.459 44.3411 83.387 44.3331C83.315 44.3251 83.2389 44.3211 83.1589 44.3211H81.8265C81.5945 44.3211 81.4384 44.3011 81.3584 44.261C81.2784 44.221 81.1863 44.145 81.0823 44.033C80.9703 43.8969 80.9022 43.6769 80.8782 43.3728C80.8542 43.0687 80.8422 42.8286 80.8422 42.6526C80.8422 42.5405 80.8462 42.3765 80.8542 42.1604C80.8622 41.9444 80.8742 41.7203 80.8902 41.4882C80.9063 41.2481 80.9343 41.0321 80.9743 40.84C81.0143 40.64 81.0623 40.4879 81.1183 40.3839C81.1663 40.3199 81.2303 40.2879 81.3104 40.2879H81.7065C81.8825 40.2879 81.9706 40.3399 81.9706 40.4439C81.9706 40.5399 81.9746 40.652 81.9826 40.78C81.9906 40.9 82.0186 40.9841 82.0666 41.0321C82.1226 41.0961 82.1906 41.1321 82.2707 41.1401C82.3507 41.1481 82.4387 41.1521 82.5347 41.1521H84.3113C84.4873 41.1521 84.6474 41.1641 84.7914 41.1881C84.9435 41.2121 85.0875 41.2882 85.2235 41.4162C85.3356 41.5362 85.4196 41.6683 85.4756 41.8123C85.5316 41.9484 85.5596 42.1524 85.5596 42.4245L85.5116 45.8215C85.4956 46.0696 85.4916 46.2576 85.4996 46.3857C85.5076 46.5057 85.5116 46.6057 85.5116 46.6858V47.0219C85.5116 47.2219 85.5196 47.466 85.5356 47.7541C85.5516 48.0422 85.5676 48.3423 85.5836 48.6544C85.5997 48.9584 85.6157 49.2585 85.6317 49.5546C85.6477 49.8507 85.6637 50.1068 85.6797 50.3229L85.7397 51.3552ZM83.315 48.6063C83.315 48.8864 83.2109 49.1305 83.0029 49.3386C82.8028 49.5386 82.5627 49.6387 82.2827 49.6387C82.0026 49.6387 81.7585 49.5386 81.5504 49.3386C81.3504 49.1305 81.2504 48.8864 81.2504 48.6063C81.2504 48.3423 81.3584 48.1102 81.5745 47.9101C81.7905 47.7021 82.0266 47.598 82.2827 47.598C82.5788 47.598 82.8228 47.6941 83.0149 47.8861C83.2149 48.0702 83.315 48.3103 83.315 48.6063ZM99.2673 51.1031C99.2673 51.2391 99.2592 51.3992 99.2432 51.5832C99.2272 51.7593 99.2112 51.8793 99.1952 51.9433C99.1232 52.1914 99.0352 52.4435 98.9312 52.6996C98.8271 52.9476 98.7151 53.1757 98.5951 53.3838C98.483 53.5838 98.379 53.7559 98.283 53.8999C98.1869 54.036 98.1109 54.112 98.0549 54.128C97.9749 54.16 97.8748 54.144 97.7548 54.08C97.6428 54.016 97.5868 53.9759 97.5868 53.9599C97.6108 53.6478 97.6268 53.3478 97.6348 53.0597C97.6428 52.7716 97.6468 52.4835 97.6468 52.1954C97.6468 51.8993 97.6468 51.5872 97.6468 51.2591C97.6468 50.931 97.6468 50.5709 97.6468 50.1788V49.2425C97.6468 48.4343 97.6228 47.7501 97.5747 47.1899C97.5347 46.6218 97.4987 46.1816 97.4667 45.8695C97.4347 45.6375 97.3867 45.4134 97.3227 45.1973C97.2587 44.9733 97.1586 44.7972 97.0226 44.6692C96.8945 44.5331 96.7585 44.4411 96.6145 44.3931C96.4784 44.3451 96.3224 44.3211 96.1463 44.3211H95.7502H93.3135C93.0814 44.3211 92.8413 44.3491 92.5933 44.4051C92.3532 44.4611 92.1251 44.5971 91.9091 44.8132C91.861 44.8612 91.813 44.9132 91.765 44.9693C91.717 45.0173 91.677 45.0733 91.645 45.1373C91.613 45.2173 91.565 45.2854 91.5009 45.3414C91.4449 45.3974 91.4009 45.4694 91.3689 45.5574C91.3049 45.6855 91.2449 45.8855 91.1888 46.1576C91.1328 46.4297 91.1048 46.7018 91.1048 46.9739C91.1048 47.2539 91.1328 47.602 91.1888 48.0182C91.2449 48.4263 91.3129 48.7904 91.3929 49.1105L91.5489 49.6387C91.581 49.7187 91.601 49.7747 91.609 49.8067C91.617 49.8387 91.629 49.8707 91.645 49.9027C91.661 49.9347 91.673 49.9707 91.681 50.0108C91.689 50.0508 91.701 50.1148 91.717 50.2028C91.749 50.2988 91.773 50.3909 91.789 50.4789C91.805 50.5669 91.821 50.671 91.837 50.791C91.853 50.919 91.861 51.0191 91.861 51.0911C91.861 51.1551 91.853 51.2751 91.837 51.4512L91.669 53.7679C91.669 53.8479 91.641 53.9039 91.585 53.9359C91.5289 53.9679 91.4569 53.9839 91.3689 53.9839H91.2489H87.7798C87.6678 53.9839 87.6198 53.9039 87.6358 53.7439L87.9839 51.2351C87.9999 50.971 88.1199 50.839 88.344 50.839H89.4843C89.6284 50.839 89.7004 50.771 89.7004 50.6349L89.5564 49.2185C89.5083 48.7384 89.4923 48.2622 89.5083 47.7901C89.5243 47.318 89.5724 46.9418 89.6524 46.6618C89.7164 46.4297 89.8004 46.2016 89.9045 45.9776C90.0165 45.7455 90.1365 45.5454 90.2646 45.3774C90.3126 45.3134 90.3926 45.2373 90.5046 45.1493C90.6247 45.0533 90.7007 44.9893 90.7327 44.9573C90.7647 44.9252 90.7967 44.8972 90.8287 44.8732C90.8607 44.8492 90.8928 44.8212 90.9248 44.7892C90.9808 44.7092 90.9768 44.6132 90.9128 44.5011C90.8567 44.3811 90.7727 44.3211 90.6607 44.3211H90.4086C90.2646 44.3211 90.1205 44.3131 89.9765 44.2971C89.8404 44.2811 89.7244 44.209 89.6284 44.081C89.5484 43.977 89.4683 43.8169 89.3883 43.6008C89.3163 43.3768 89.2803 43.1247 89.2803 42.8446C89.2803 42.7166 89.2843 42.5405 89.2923 42.3165C89.3003 42.0844 89.3163 41.8483 89.3403 41.6083C89.3643 41.3682 89.3963 41.1441 89.4363 40.9361C89.4843 40.72 89.5403 40.5639 89.6044 40.4679C89.6684 40.3799 89.7444 40.3399 89.8324 40.3479C89.9285 40.3559 90.0165 40.3599 90.0965 40.3599C90.3286 40.3599 90.4446 40.4199 90.4446 40.5399C90.4446 40.62 90.4526 40.724 90.4686 40.852C90.4846 40.9721 90.5166 41.0481 90.5647 41.0801C90.6287 41.1281 90.7007 41.1521 90.7807 41.1521H91.0808H96.5544C97.0506 41.1521 97.4827 41.1921 97.8508 41.2722C98.2189 41.3522 98.519 41.6003 98.7511 42.0164C98.8791 42.2404 98.9632 42.4765 99.0032 42.7246C99.0432 42.9727 99.0632 43.2527 99.0632 43.5648V46.5057V46.9018C99.0632 47.1499 99.0712 47.462 99.0872 47.8381C99.1032 48.2142 99.1232 48.5983 99.1472 48.9905C99.1792 49.3826 99.2032 49.7707 99.2192 50.1548C99.2352 50.5309 99.2512 50.847 99.2673 51.1031ZM108.005 56.9008C108.005 57.1809 107.901 57.421 107.693 57.621C107.493 57.8291 107.253 57.9331 106.973 57.9331C106.685 57.9331 106.437 57.8291 106.229 57.621C106.021 57.421 105.917 57.1809 105.917 56.9008C105.917 56.6207 106.025 56.3807 106.241 56.1806C106.457 55.9885 106.701 55.8925 106.973 55.8925C107.269 55.8925 107.513 55.9885 107.705 56.1806C107.905 56.3807 108.005 56.6207 108.005 56.9008ZM108.005 60.1298C108.005 60.4019 107.901 60.6419 107.693 60.85C107.493 61.0581 107.253 61.1621 106.973 61.1621C106.685 61.1621 106.437 61.0581 106.229 60.85C106.021 60.6419 105.917 60.4019 105.917 60.1298C105.917 59.8497 106.025 59.6096 106.241 59.4096C106.457 59.2175 106.701 59.1215 106.973 59.1215C107.269 59.1215 107.513 59.2175 107.705 59.4096C107.905 59.6096 108.005 59.8497 108.005 60.1298ZM112.47 48.3783C112.47 49.0665 112.446 49.6587 112.398 50.1548C112.35 50.643 112.286 51.0511 112.206 51.3792C112.086 51.8513 111.938 52.2474 111.762 52.5675C111.594 52.8876 111.314 53.1877 110.922 53.4678C110.642 53.6679 110.338 53.8039 110.01 53.8759C109.681 53.9479 109.353 53.9839 109.025 53.9839H102.855C102.775 53.9839 102.719 53.9519 102.687 53.8879C102.655 53.8239 102.639 53.7559 102.639 53.6839L102.963 51.1271C102.979 50.9991 103.015 50.923 103.071 50.899C103.127 50.875 103.227 50.863 103.372 50.863H108.077C108.301 50.863 108.521 50.863 108.737 50.863C108.953 50.863 109.173 50.839 109.397 50.791C109.629 50.743 109.821 50.687 109.973 50.6229C110.134 50.5509 110.278 50.4509 110.406 50.3229C110.782 49.9948 111.01 49.6066 111.09 49.1585C111.178 48.7024 111.222 48.2222 111.222 47.7181C111.222 47.406 111.202 47.0819 111.162 46.7458C111.122 46.4097 111.05 46.0856 110.946 45.7735C110.85 45.4614 110.71 45.1853 110.526 44.9452C110.35 44.6972 110.122 44.5051 109.841 44.3691C109.609 44.257 109.377 44.193 109.145 44.177C108.921 44.161 108.677 44.153 108.413 44.153H106.18C105.98 44.153 105.836 44.157 105.748 44.165C105.66 44.173 105.548 44.193 105.412 44.225C105.188 44.273 105.016 44.3371 104.896 44.4171C104.72 44.5531 104.588 44.7412 104.5 44.9813C104.42 45.2133 104.38 45.4374 104.38 45.6535V45.8455C104.396 45.9415 104.456 45.9896 104.56 45.9896H104.752H105.64C105.888 45.9896 106.096 46.0576 106.264 46.1936C106.44 46.3217 106.544 46.5177 106.576 46.7818C106.592 46.9098 106.608 47.0419 106.624 47.1779C106.64 47.306 106.648 47.446 106.648 47.598C106.648 47.8221 106.644 48.0742 106.636 48.3543C106.628 48.6344 106.6 48.8304 106.552 48.9424C106.52 49.0225 106.488 49.0705 106.456 49.0865C106.432 49.1025 106.372 49.1105 106.276 49.1105H106.084L106.06 49.1465H106.036H106.012C105.996 49.1465 105.968 49.1345 105.928 49.1105C105.896 49.0785 105.864 49.0225 105.832 48.9424C105.816 48.9104 105.808 48.8784 105.808 48.8464C105.808 48.8144 105.792 48.7824 105.76 48.7504C105.68 48.6464 105.528 48.5863 105.304 48.5703C105.088 48.5543 104.912 48.5463 104.776 48.5463H104.656C104.456 48.5463 104.272 48.5823 104.104 48.6544C103.944 48.7184 103.84 48.7904 103.792 48.8704C103.76 48.9024 103.736 48.9584 103.72 49.0385C103.704 49.1105 103.688 49.1625 103.672 49.1945C103.64 49.3066 103.592 49.3666 103.528 49.3746C103.464 49.3826 103.372 49.3866 103.251 49.3866C103.171 49.3866 103.119 49.3826 103.095 49.3746C103.071 49.3666 103.051 49.3626 103.035 49.3626L103.011 49.3146V49.2905L102.987 49.2425C102.899 49.0905 102.839 48.8664 102.807 48.5703C102.775 48.2662 102.759 47.9742 102.759 47.6941C102.759 47.35 102.783 46.9979 102.831 46.6378C102.887 46.2776 102.995 45.9335 103.155 45.6054C103.187 45.5334 103.219 45.4694 103.251 45.4134C103.283 45.3574 103.316 45.2974 103.348 45.2333C103.404 45.1053 103.472 44.9973 103.552 44.9092C103.616 44.8132 103.68 44.7412 103.744 44.6932C103.792 44.6452 103.868 44.5531 103.972 44.4171C104.004 44.3851 104.012 44.3371 103.996 44.273C103.98 44.209 103.936 44.177 103.864 44.177C103.624 44.161 103.428 44.061 103.275 43.8769C103.179 43.7649 103.103 43.5648 103.047 43.2768C102.991 42.9887 102.963 42.6806 102.963 42.3525C102.963 41.9283 102.999 41.5482 103.071 41.2121C103.143 40.876 103.227 40.62 103.324 40.4439C103.356 40.3719 103.4 40.3319 103.456 40.3239C103.52 40.3159 103.584 40.3119 103.648 40.3119H103.864C103.968 40.3119 104.032 40.3319 104.056 40.3719C104.08 40.4039 104.092 40.4359 104.092 40.4679C104.092 40.5799 104.108 40.704 104.14 40.84C104.172 40.9681 104.228 41.0561 104.308 41.1041C104.396 41.1361 104.488 41.1521 104.584 41.1521C104.68 41.1521 104.768 41.1521 104.848 41.1521H109.373C109.853 41.1521 110.226 41.1801 110.49 41.2361C110.762 41.2922 111.006 41.3962 111.222 41.5482C111.55 41.7723 111.798 42.0444 111.966 42.3645C112.142 42.6846 112.27 43.1247 112.35 43.6849C112.382 43.965 112.41 44.3691 112.434 44.8972C112.458 45.4174 112.47 45.9215 112.47 46.4097V48.3783ZM109.361 47.442C109.361 47.7221 109.257 47.9662 109.049 48.1742C108.849 48.3743 108.609 48.4743 108.329 48.4743C108.049 48.4743 107.805 48.3743 107.597 48.1742C107.397 47.9662 107.297 47.7221 107.297 47.442C107.297 47.1779 107.405 46.9458 107.621 46.7458C107.837 46.5377 108.073 46.4337 108.329 46.4337C108.625 46.4337 108.869 46.5297 109.061 46.7218C109.261 46.9058 109.361 47.1459 109.361 47.442ZM117.727 57.645C117.511 57.645 117.403 57.521 117.403 57.2729V56.4807C117.403 56.2406 117.511 56.1206 117.727 56.1206H122.325C122.533 56.1206 122.637 56.2406 122.637 56.4807V57.2729C122.637 57.521 122.533 57.645 122.325 57.645H117.727ZM125.577 43.9009C125.577 43.949 125.565 44.021 125.541 44.117C125.517 44.205 125.489 44.273 125.457 44.3211C125.409 44.4331 125.365 44.5291 125.325 44.6091C125.285 44.6812 125.197 44.8052 125.061 44.9813C124.981 45.1013 124.925 45.2773 124.893 45.5094C124.861 45.7335 124.829 45.9095 124.797 46.0376C124.797 46.0936 124.797 46.1776 124.797 46.2897C124.797 46.4017 124.805 46.5217 124.821 46.6498C124.837 46.7698 124.853 46.8978 124.869 47.0339C124.885 47.1619 124.893 47.2579 124.893 47.322C124.925 47.538 124.961 47.7821 125.001 48.0542C125.041 48.3183 125.077 48.5743 125.109 48.8224L125.361 50.3469C125.377 50.4589 125.401 50.6109 125.433 50.803C125.465 50.9871 125.481 51.1311 125.481 51.2351C125.481 51.3952 125.469 51.5952 125.445 51.8353C125.421 52.0674 125.369 52.2594 125.289 52.4115C125.241 52.5235 125.165 52.6636 125.061 52.8316C124.965 52.9917 124.877 53.1117 124.797 53.1917C124.661 53.3438 124.477 53.5118 124.245 53.6959C124.021 53.8719 123.821 53.992 123.645 54.056C123.589 54.088 123.525 54.08 123.453 54.032C123.381 53.9839 123.329 53.9279 123.297 53.8639L123.272 53.8159C123.24 53.7439 123.232 53.6919 123.248 53.6599C123.377 53.4198 123.457 53.1077 123.489 52.7236C123.521 52.3315 123.521 51.9994 123.489 51.7273L123.152 48.0062C123.096 47.2379 123.152 46.6017 123.321 46.0976C123.401 45.8495 123.493 45.6255 123.597 45.4254C123.709 45.2173 123.845 45.0373 124.005 44.8852C124.141 44.7572 124.173 44.6372 124.101 44.5251C124.037 44.3891 123.925 44.3211 123.765 44.3211H117.295C117.119 44.3211 116.911 44.3171 116.671 44.3091C116.43 44.3011 116.246 44.233 116.118 44.105C115.918 43.9209 115.798 43.7089 115.758 43.4688C115.718 43.2207 115.698 42.9647 115.698 42.7006C115.698 42.5165 115.698 42.3005 115.698 42.0524C115.698 41.7963 115.714 41.5522 115.746 41.3202C115.778 41.1121 115.826 40.9361 115.89 40.792C115.962 40.64 116.038 40.5039 116.118 40.3839C116.134 40.3199 116.19 40.2879 116.286 40.2879H116.635C116.747 40.2879 116.815 40.3039 116.839 40.3359C116.863 40.3679 116.875 40.4039 116.875 40.4439C116.875 40.5559 116.883 40.676 116.899 40.804C116.915 40.924 116.959 41.0081 117.031 41.0561C117.127 41.1201 117.191 41.1521 117.223 41.1521H117.523H124.233C124.609 41.1521 124.909 41.2201 125.133 41.3562C125.365 41.4842 125.505 41.8163 125.553 42.3525C125.569 42.4725 125.577 42.6686 125.577 42.9407C125.577 43.2047 125.577 43.4048 125.577 43.5408V43.9009ZM118.159 47.7901C118.143 47.8701 118.111 47.9421 118.063 48.0062C117.959 48.1422 117.887 48.3383 117.847 48.5943C117.807 48.8424 117.827 49.2385 117.907 49.7827L118.087 50.959C118.119 51.2871 118.127 51.5792 118.111 51.8353C118.095 52.0914 118.071 52.2834 118.039 52.4115C117.983 52.5715 117.911 52.7316 117.823 52.8916C117.735 53.0437 117.599 53.2117 117.415 53.3958C117.287 53.5238 117.135 53.6478 116.959 53.7679C116.791 53.8799 116.651 53.9679 116.538 54.032C116.37 54.128 116.23 54.152 116.118 54.104C116.086 54.088 116.042 54.044 115.986 53.9719C115.938 53.8999 115.934 53.8479 115.974 53.8159C116.054 53.6639 116.094 53.4878 116.094 53.2877C116.094 53.0797 116.094 52.8956 116.094 52.7356V49.2905C116.094 48.9464 116.126 48.6544 116.19 48.4143C116.254 48.1742 116.326 48.0062 116.406 47.9101C116.494 47.8301 116.603 47.7461 116.731 47.6581C116.859 47.562 116.959 47.498 117.031 47.466C117.159 47.418 117.291 47.386 117.427 47.37C117.571 47.354 117.731 47.346 117.907 47.346C117.979 47.346 118.047 47.378 118.111 47.442C118.127 47.474 118.147 47.534 118.171 47.622C118.195 47.7021 118.191 47.7581 118.159 47.7901ZM144.471 43.9009C144.471 43.949 144.459 44.021 144.435 44.117C144.411 44.205 144.383 44.273 144.351 44.3211C144.303 44.4331 144.259 44.5291 144.219 44.6091C144.179 44.6812 144.091 44.8052 143.955 44.9813C143.875 45.1013 143.819 45.2773 143.787 45.5094C143.755 45.7335 143.723 45.9095 143.691 46.0376C143.691 46.0936 143.691 46.1776 143.691 46.2897C143.691 46.4017 143.699 46.5217 143.715 46.6498C143.731 46.7698 143.747 46.8978 143.763 47.0339C143.779 47.1619 143.787 47.2579 143.787 47.322C143.819 47.538 143.855 47.7821 143.895 48.0542C143.935 48.3183 143.971 48.5743 144.003 48.8224L144.255 50.3469C144.271 50.4589 144.295 50.6109 144.327 50.803C144.359 50.9871 144.375 51.1311 144.375 51.2351C144.375 51.3952 144.363 51.5952 144.339 51.8353C144.315 52.0674 144.263 52.2594 144.183 52.4115C144.135 52.5235 144.059 52.6636 143.955 52.8316C143.859 52.9917 143.771 53.1117 143.691 53.1917C143.555 53.3438 143.37 53.5118 143.138 53.6959C142.914 53.8719 142.714 53.992 142.538 54.056C142.482 54.088 142.418 54.08 142.346 54.032C142.274 53.9839 142.222 53.9279 142.19 53.8639L142.166 53.8159C142.134 53.7439 142.126 53.6919 142.142 53.6599C142.27 53.4198 142.35 53.1077 142.382 52.7236C142.414 52.3315 142.414 51.9994 142.382 51.7273L142.046 48.0062C141.99 47.2379 142.046 46.6017 142.214 46.0976C142.294 45.8495 142.386 45.6255 142.49 45.4254C142.602 45.2173 142.738 45.0373 142.898 44.8852C143.034 44.7572 143.066 44.6372 142.994 44.5251C142.93 44.3891 142.818 44.3211 142.658 44.3211H136.188C136.012 44.3211 135.804 44.3171 135.564 44.3091C135.324 44.3011 135.14 44.233 135.012 44.105C134.812 43.9209 134.692 43.7089 134.652 43.4688C134.612 43.2207 134.592 42.9647 134.592 42.7006C134.592 42.5165 134.592 42.3005 134.592 42.0524C134.592 41.7963 134.608 41.5522 134.64 41.3202C134.672 41.1121 134.72 40.9361 134.784 40.792C134.856 40.64 134.932 40.5039 135.012 40.3839C135.028 40.3199 135.084 40.2879 135.18 40.2879H135.528C135.64 40.2879 135.708 40.3039 135.732 40.3359C135.756 40.3679 135.768 40.4039 135.768 40.4439C135.768 40.5559 135.776 40.676 135.792 40.804C135.808 40.924 135.852 41.0081 135.924 41.0561C136.02 41.1201 136.084 41.1521 136.116 41.1521H136.416H143.126C143.503 41.1521 143.803 41.2201 144.027 41.3562C144.259 41.4842 144.399 41.8163 144.447 42.3525C144.463 42.4725 144.471 42.6686 144.471 42.9407C144.471 43.2047 144.471 43.4048 144.471 43.5408V43.9009ZM137.053 47.7901C137.037 47.8701 137.005 47.9421 136.957 48.0062C136.853 48.1422 136.781 48.3383 136.741 48.5943C136.701 48.8424 136.721 49.2385 136.801 49.7827L136.981 50.959C137.013 51.2871 137.021 51.5792 137.005 51.8353C136.989 52.0914 136.965 52.2834 136.933 52.4115C136.877 52.5715 136.805 52.7316 136.717 52.8916C136.628 53.0437 136.492 53.2117 136.308 53.3958C136.18 53.5238 136.028 53.6478 135.852 53.7679C135.684 53.8799 135.544 53.9679 135.432 54.032C135.264 54.128 135.124 54.152 135.012 54.104C134.98 54.088 134.936 54.044 134.88 53.9719C134.832 53.8999 134.828 53.8479 134.868 53.8159C134.948 53.6639 134.988 53.4878 134.988 53.2877C134.988 53.0797 134.988 52.8956 134.988 52.7356V49.2905C134.988 48.9464 135.02 48.6544 135.084 48.4143C135.148 48.1742 135.22 48.0062 135.3 47.9101C135.388 47.8301 135.496 47.7461 135.624 47.6581C135.752 47.562 135.852 47.498 135.924 47.466C136.052 47.418 136.184 47.386 136.32 47.37C136.464 47.354 136.624 47.346 136.801 47.346C136.873 47.346 136.941 47.378 137.005 47.442C137.021 47.474 137.041 47.534 137.065 47.622C137.089 47.7021 137.085 47.7581 137.053 47.7901ZM148.63 56.1206H153.228C153.436 56.1206 153.54 56.2406 153.54 56.4807V57.2729C153.54 57.521 153.436 57.645 153.228 57.645H151.331C151.331 58.0212 151.403 58.3733 151.547 58.7014L151.823 59.3135C151.887 59.4416 151.919 59.5816 151.919 59.7337C151.919 60.0137 151.819 60.2458 151.619 60.4299C151.427 60.6219 151.199 60.718 150.935 60.718C150.663 60.718 150.431 60.6179 150.239 60.4179C150.039 60.2258 149.939 59.9977 149.939 59.7337C149.939 59.5816 149.971 59.4416 150.035 59.3135L150.299 58.7014C150.467 58.3412 150.551 57.9891 150.551 57.645H148.63C148.414 57.645 148.306 57.521 148.306 57.2729V56.4807C148.306 56.2406 148.414 56.1206 148.63 56.1206ZM155.971 51.0791L155.779 53.7439C155.779 53.9039 155.715 53.9839 155.587 53.9839H146.188C146.108 53.9839 146.076 53.9279 146.092 53.8159L146.308 51.2591C146.332 51.1231 146.36 51.0191 146.392 50.947C146.424 50.875 146.496 50.839 146.608 50.839H152.514C152.922 50.839 153.214 50.723 153.39 50.4909C153.542 50.2988 153.658 49.9627 153.738 49.4826C153.77 49.3066 153.794 49.1225 153.81 48.9304C153.826 48.7304 153.834 48.4383 153.834 48.0542C153.834 47.6461 153.814 47.2579 153.774 46.8898C153.734 46.5217 153.698 46.2136 153.666 45.9656C153.618 45.7095 153.534 45.4574 153.414 45.2093C153.302 44.9613 153.13 44.7492 152.898 44.5731C152.722 44.4371 152.558 44.3611 152.406 44.3451C152.262 44.3291 152.118 44.3211 151.974 44.3211H147.916C147.78 44.3211 147.648 44.3211 147.52 44.3211C147.4 44.3211 147.292 44.3131 147.196 44.2971C147.1 44.2811 147.02 44.257 146.956 44.225C146.892 44.193 146.824 44.153 146.752 44.105C146.592 43.969 146.488 43.8049 146.44 43.6129C146.392 43.4128 146.36 43.2087 146.344 43.0007V42.5325C146.344 42.3965 146.352 42.2324 146.368 42.0404C146.384 41.8403 146.404 41.6403 146.428 41.4402C146.452 41.2321 146.488 41.0401 146.536 40.864C146.584 40.68 146.64 40.5319 146.704 40.4199C146.736 40.3479 146.784 40.3079 146.848 40.2999C146.92 40.2919 146.996 40.2879 147.076 40.2879H147.268C147.388 40.2879 147.46 40.2999 147.484 40.3239C147.508 40.3479 147.52 40.3799 147.52 40.4199C147.52 40.5159 147.524 40.632 147.532 40.768C147.54 40.896 147.584 40.9841 147.664 41.0321C147.76 41.1121 147.932 41.1521 148.18 41.1521H152.97C153.298 41.1521 153.602 41.1881 153.882 41.2601C154.162 41.3322 154.41 41.4762 154.626 41.6923C154.802 41.8763 154.962 42.1644 155.106 42.5565C155.259 42.9487 155.335 43.4048 155.335 43.9249V45.3774C155.335 46.0016 155.319 46.6258 155.287 47.2499C155.255 47.8741 155.199 48.4703 155.118 49.0385C155.086 49.2225 155.014 49.4546 154.902 49.7347C154.798 50.0148 154.662 50.2588 154.494 50.4669C154.446 50.5309 154.43 50.6109 154.446 50.707C154.462 50.795 154.538 50.839 154.674 50.839H155.779C155.923 50.839 155.987 50.919 155.971 51.0791ZM162.147 43.5648C162.147 43.8209 162.151 44.065 162.159 44.2971C162.167 44.5291 162.151 44.7172 162.111 44.8612C162.079 45.1253 162.019 45.4294 161.931 45.7735C161.843 46.1176 161.759 46.3817 161.679 46.5657C161.575 46.7898 161.447 47.0059 161.295 47.2139C161.151 47.414 161.014 47.59 160.886 47.7421C160.758 47.8861 160.622 48.0182 160.478 48.1382C160.342 48.2502 160.198 48.3703 160.046 48.4983C159.918 48.6023 159.798 48.6063 159.686 48.5103C159.582 48.4063 159.498 48.3143 159.434 48.2342C159.402 48.1862 159.374 48.1502 159.35 48.1262C159.326 48.0942 159.306 48.0622 159.29 48.0302C159.21 47.9501 159.202 47.8621 159.266 47.7661C159.394 47.6541 159.506 47.562 159.602 47.49C159.706 47.41 159.798 47.33 159.878 47.2499C160.206 46.9218 160.438 46.6538 160.574 46.4457C160.718 46.2296 160.79 46.0136 160.79 45.7975C160.79 45.4214 160.666 45.0853 160.418 44.7892C160.386 44.7572 160.358 44.7292 160.334 44.7052C160.31 44.6812 160.282 44.6532 160.25 44.6212C160.186 44.5331 160.07 44.4611 159.902 44.4051C159.742 44.3491 159.602 44.3211 159.482 44.3211H158.21C157.914 44.3211 157.693 44.253 157.549 44.117C157.413 43.973 157.329 43.7129 157.297 43.3368C157.281 43.1767 157.273 43.0007 157.273 42.8086C157.273 42.6086 157.273 42.4165 157.273 42.2324C157.273 41.7923 157.297 41.4242 157.345 41.1281C157.393 40.832 157.461 40.5839 157.549 40.3839C157.581 40.3199 157.661 40.2879 157.79 40.2879H157.91H158.114C158.29 40.2879 158.378 40.3399 158.378 40.4439C158.378 40.5719 158.386 40.708 158.402 40.852C158.418 40.9881 158.458 41.0721 158.522 41.1041C158.594 41.1361 158.734 41.1521 158.942 41.1521H160.442C160.562 41.1521 160.694 41.1561 160.838 41.1641C160.982 41.1721 161.119 41.2041 161.247 41.2601C161.383 41.3162 161.507 41.4042 161.619 41.5242C161.739 41.6363 161.831 41.7923 161.895 41.9924C161.975 42.2164 162.035 42.4365 162.075 42.6526C162.123 42.8606 162.147 43.1647 162.147 43.5648ZM170.364 56.9008C170.364 57.1809 170.251 57.429 170.027 57.645C169.811 57.8691 169.563 57.9811 169.283 57.9811C168.995 57.9811 168.739 57.8691 168.515 57.645C168.291 57.429 168.179 57.1809 168.179 56.9008C168.179 56.6047 168.291 56.3527 168.515 56.1446C168.739 55.9445 168.995 55.8445 169.283 55.8445C169.595 55.8445 169.851 55.9445 170.051 56.1446C170.259 56.3527 170.364 56.6047 170.364 56.9008ZM176.708 43.949C176.708 44.261 176.688 44.4771 176.648 44.5971C176.616 44.7092 176.576 44.8212 176.528 44.9332C176.464 45.1013 176.408 45.2173 176.36 45.2814C176.328 45.3294 176.3 45.3694 176.276 45.4014C176.252 45.4334 176.24 45.4574 176.24 45.4734C176.135 45.6255 176.023 45.7775 175.903 45.9295C175.783 46.0736 175.671 46.2416 175.567 46.4337C175.535 46.4977 175.487 46.6017 175.423 46.7458C175.359 46.8818 175.287 47.0419 175.207 47.2259C175.127 47.37 175.043 47.542 174.955 47.7421C174.875 47.9341 174.795 48.1222 174.715 48.3063C174.483 48.8424 174.247 49.4506 174.007 50.1308C173.775 50.811 173.543 51.5072 173.311 52.2194L173.071 53.0957C173.031 53.1997 172.987 53.3197 172.939 53.4558C172.891 53.5918 172.834 53.7039 172.77 53.7919C172.674 53.8879 172.578 53.9439 172.482 53.9599C172.394 53.9759 172.286 53.9839 172.158 53.9839H171.858H165.52C165.488 53.9839 165.444 53.9839 165.388 53.9839C165.34 53.9839 165.3 53.9759 165.268 53.9599C165.252 53.9599 165.228 53.9039 165.196 53.7919C165.084 53.3117 164.992 52.8716 164.92 52.4715C164.856 52.0714 164.76 51.5592 164.632 50.935C164.568 50.655 164.508 50.3509 164.452 50.0228C164.396 49.6947 164.34 49.3746 164.284 49.0625C164.236 48.7504 164.196 48.4743 164.164 48.2342C164.132 47.9862 164.116 47.8061 164.116 47.6941C164.116 47.1659 164.14 46.7138 164.188 46.3377C164.236 45.9616 164.344 45.6094 164.512 45.2814C164.56 45.1853 164.604 45.1133 164.644 45.0653C164.684 45.0093 164.772 44.9012 164.908 44.7412C164.94 44.6772 164.948 44.6011 164.932 44.5131C164.916 44.4171 164.832 44.3691 164.68 44.3691H164.44C164.112 44.3691 163.88 44.257 163.744 44.033C163.616 43.8009 163.552 43.4728 163.552 43.0487V41.8603C163.568 41.5322 163.616 41.2241 163.696 40.9361C163.728 40.848 163.752 40.78 163.768 40.732C163.784 40.684 163.812 40.636 163.852 40.5879C163.884 40.5239 163.912 40.4879 163.936 40.4799C163.96 40.4719 164.004 40.4679 164.068 40.4679H164.368C164.496 40.4679 164.576 40.4759 164.608 40.4919C164.64 40.5079 164.656 40.5319 164.656 40.5639C164.608 40.9561 164.716 41.1521 164.98 41.1521H166.06C166.253 41.1521 166.429 41.1761 166.589 41.2241C166.757 41.2722 166.885 41.3642 166.973 41.5002C167.101 41.6603 167.177 41.8363 167.201 42.0284C167.225 42.2124 167.237 42.4925 167.237 42.8686C167.237 43.0367 167.237 43.1967 167.237 43.3488C167.237 43.4928 167.229 43.6289 167.213 43.7569C167.213 44.053 167.181 44.273 167.117 44.4171C167.101 44.4891 167.045 44.4971 166.949 44.4411C166.917 44.4091 166.885 44.3891 166.853 44.3811C166.829 44.3731 166.793 44.3691 166.745 44.3691H166.553C166.473 44.3691 166.385 44.3851 166.289 44.4171C166.201 44.4491 166.14 44.5011 166.108 44.5731C166.012 44.7332 165.912 44.9573 165.808 45.2453C165.712 45.5334 165.632 45.8735 165.568 46.2656C165.552 46.3777 165.544 46.4817 165.544 46.5777C165.544 46.6658 165.544 46.7578 165.544 46.8538C165.544 47.2299 165.588 47.6621 165.676 48.1502C165.764 48.6303 165.908 49.1905 166.108 49.8307C166.237 50.3028 166.349 50.6149 166.445 50.767C166.549 50.911 166.709 50.9831 166.925 50.9831L169.397 44.7172C169.437 44.6372 169.449 44.5651 169.433 44.5011C169.425 44.4291 169.381 44.3931 169.301 44.3931H169.061C168.701 44.3931 168.453 44.2971 168.317 44.105C168.205 43.9049 168.149 43.5248 168.149 42.9647C168.149 42.7886 168.145 42.5525 168.137 42.2564C168.129 41.9604 168.141 41.7243 168.173 41.5482C168.189 41.3642 168.213 41.1841 168.245 41.0081C168.277 40.824 168.309 40.692 168.341 40.612C168.413 40.5159 168.497 40.4679 168.593 40.4679H168.881C169.033 40.4679 169.125 40.4839 169.157 40.5159C169.189 40.5479 169.205 40.5799 169.205 40.612C169.205 40.828 169.225 40.9721 169.265 41.0441C169.305 41.1161 169.385 41.1521 169.505 41.1521L170.73 41.2001C170.93 41.2161 171.102 41.2481 171.246 41.2962C171.39 41.3442 171.506 41.4362 171.594 41.5722C171.69 41.7003 171.754 41.8803 171.786 42.1124C171.818 42.3365 171.834 42.6046 171.834 42.9166C171.834 43.1967 171.826 43.4888 171.81 43.7929C171.794 44.097 171.754 44.3131 171.69 44.4411C171.674 44.5131 171.626 44.5291 171.546 44.4891C171.49 44.4411 171.414 44.4171 171.318 44.4171H170.946C170.85 44.4171 170.778 44.4611 170.73 44.5491C170.682 44.6292 170.642 44.7012 170.61 44.7652L168.173 50.935H169.938C170.53 50.935 170.99 50.871 171.318 50.743C171.646 50.6069 171.914 50.3669 172.122 50.0228C172.338 49.6787 172.53 49.3506 172.698 49.0385L173.503 47.346C173.591 47.2179 173.675 47.0659 173.755 46.8898C173.835 46.7058 173.891 46.5697 173.923 46.4817C174.003 46.3057 174.135 46.0936 174.319 45.8455C174.503 45.5974 174.675 45.4334 174.835 45.3534C174.979 45.2894 175.075 45.2253 175.123 45.1613C175.179 45.0973 175.207 45.0053 175.207 44.8852C175.207 44.7572 175.155 44.6652 175.051 44.6091C174.955 44.5531 174.859 44.5251 174.763 44.5251L173.755 44.4651C173.627 44.4651 173.499 44.4451 173.371 44.4051C173.251 44.3651 173.151 44.3051 173.071 44.225C172.983 44.113 172.919 43.953 172.879 43.7449C172.838 43.5368 172.818 43.2047 172.818 42.7486C172.818 42.5725 172.818 42.3725 172.818 42.1484C172.818 41.9243 172.834 41.7083 172.867 41.5002C172.883 41.1401 172.951 40.852 173.071 40.636C173.103 40.5559 173.175 40.5159 173.287 40.5159H173.587C173.715 40.5159 173.795 40.5279 173.827 40.5519C173.859 40.5759 173.875 40.604 173.875 40.636C173.875 40.764 173.883 40.892 173.899 41.0201C173.915 41.1401 173.991 41.2001 174.127 41.2001L175.375 41.2481C175.671 41.2642 175.875 41.3042 175.987 41.3682C176.107 41.4242 176.224 41.5002 176.336 41.5963C176.448 41.6923 176.536 41.8363 176.6 42.0284C176.672 42.2124 176.708 42.5365 176.708 43.0007V43.949ZM175.459 38.4993C175.459 38.7794 175.355 39.0235 175.147 39.2315C174.947 39.4316 174.707 39.5316 174.427 39.5316C174.155 39.5316 173.915 39.4316 173.707 39.2315C173.499 39.0235 173.395 38.7794 173.395 38.4993C173.395 38.2352 173.499 38.0032 173.707 37.8031C173.915 37.5951 174.155 37.491 174.427 37.491C174.739 37.491 174.987 37.5871 175.171 37.7791C175.363 37.9632 175.459 38.2032 175.459 38.4993ZM181.827 56.9008C181.827 57.1809 181.723 57.421 181.515 57.621C181.315 57.8291 181.075 57.9331 180.795 57.9331C180.507 57.9331 180.259 57.8291 180.051 57.621C179.843 57.421 179.739 57.1809 179.739 56.9008C179.739 56.6207 179.847 56.3807 180.063 56.1806C180.279 55.9885 180.523 55.8925 180.795 55.8925C181.091 55.8925 181.335 55.9885 181.527 56.1806C181.727 56.3807 181.827 56.6207 181.827 56.9008ZM181.827 60.1298C181.827 60.4019 181.723 60.6419 181.515 60.85C181.315 61.0581 181.075 61.1621 180.795 61.1621C180.507 61.1621 180.259 61.0581 180.051 60.85C179.843 60.6419 179.739 60.4019 179.739 60.1298C179.739 59.8497 179.847 59.6096 180.063 59.4096C180.279 59.2175 180.523 59.1215 180.795 59.1215C181.091 59.1215 181.335 59.2175 181.527 59.4096C181.727 59.6096 181.827 59.8497 181.827 60.1298ZM182.65 43.5648C182.65 43.8209 182.654 44.065 182.662 44.2971C182.67 44.5291 182.654 44.7172 182.614 44.8612C182.582 45.1253 182.522 45.4294 182.434 45.7735C182.346 46.1176 182.262 46.3817 182.182 46.5657C182.078 46.7898 181.95 47.0059 181.798 47.2139C181.654 47.414 181.518 47.59 181.39 47.7421C181.261 47.8861 181.125 48.0182 180.981 48.1382C180.845 48.2502 180.701 48.3703 180.549 48.4983C180.421 48.6023 180.301 48.6063 180.189 48.5103C180.085 48.4063 180.001 48.3143 179.937 48.2342C179.905 48.1862 179.877 48.1502 179.853 48.1262C179.829 48.0942 179.809 48.0622 179.793 48.0302C179.713 47.9501 179.705 47.8621 179.769 47.7661C179.897 47.6541 180.009 47.562 180.105 47.49C180.209 47.41 180.301 47.33 180.381 47.2499C180.709 46.9218 180.941 46.6538 181.077 46.4457C181.221 46.2296 181.293 46.0136 181.293 45.7975C181.293 45.4214 181.169 45.0853 180.921 44.7892C180.889 44.7572 180.861 44.7292 180.837 44.7052C180.813 44.6812 180.785 44.6532 180.753 44.6212C180.689 44.5331 180.573 44.4611 180.405 44.4051C180.245 44.3491 180.105 44.3211 179.985 44.3211H178.713C178.417 44.3211 178.197 44.253 178.053 44.117C177.916 43.973 177.832 43.7129 177.8 43.3368C177.784 43.1767 177.776 43.0007 177.776 42.8086C177.776 42.6086 177.776 42.4165 177.776 42.2324C177.776 41.7923 177.8 41.4242 177.848 41.1281C177.896 40.832 177.964 40.5839 178.053 40.3839C178.085 40.3199 178.165 40.2879 178.293 40.2879H178.413H178.617C178.793 40.2879 178.881 40.3399 178.881 40.4439C178.881 40.5719 178.889 40.708 178.905 40.852C178.921 40.9881 178.961 41.0721 179.025 41.1041C179.097 41.1361 179.237 41.1521 179.445 41.1521H180.945C181.065 41.1521 181.197 41.1561 181.342 41.1641C181.486 41.1721 181.622 41.2041 181.75 41.2601C181.886 41.3162 182.01 41.4042 182.122 41.5242C182.242 41.6363 182.334 41.7923 182.398 41.9924C182.478 42.2164 182.538 42.4365 182.578 42.6526C182.626 42.8606 182.65 43.1647 182.65 43.5648ZM187.049 57.645C186.833 57.645 186.725 57.521 186.725 57.2729V56.4807C186.725 56.2406 186.833 56.1206 187.049 56.1206H191.647C191.855 56.1206 191.959 56.2406 191.959 56.4807V57.2729C191.959 57.521 191.855 57.645 191.647 57.645H187.049ZM194.162 43.9009C194.162 43.949 194.15 44.021 194.126 44.117C194.102 44.205 194.074 44.273 194.042 44.3211C193.994 44.4331 193.95 44.5291 193.91 44.6091C193.87 44.6812 193.782 44.8052 193.646 44.9813C193.566 45.1013 193.51 45.2773 193.478 45.5094C193.446 45.7335 193.414 45.9095 193.382 46.0376C193.382 46.0936 193.382 46.1776 193.382 46.2897C193.382 46.4017 193.39 46.5217 193.406 46.6498C193.422 46.7698 193.438 46.8978 193.454 47.0339C193.47 47.1619 193.478 47.2579 193.478 47.322C193.51 47.538 193.546 47.7821 193.586 48.0542C193.626 48.3183 193.662 48.5743 193.694 48.8224L193.946 50.3469C193.962 50.4589 193.986 50.6109 194.018 50.803C194.05 50.9871 194.066 51.1311 194.066 51.2351C194.066 51.3952 194.054 51.5952 194.03 51.8353C194.006 52.0674 193.954 52.2594 193.874 52.4115C193.826 52.5235 193.75 52.6636 193.646 52.8316C193.55 52.9917 193.462 53.1117 193.382 53.1917C193.246 53.3438 193.061 53.5118 192.829 53.6959C192.605 53.8719 192.405 53.992 192.229 54.056C192.173 54.088 192.109 54.08 192.037 54.032C191.965 53.9839 191.913 53.9279 191.881 53.8639L191.857 53.8159C191.825 53.7439 191.817 53.6919 191.833 53.6599C191.961 53.4198 192.041 53.1077 192.073 52.7236C192.105 52.3315 192.105 51.9994 192.073 51.7273L191.737 48.0062C191.681 47.2379 191.737 46.6017 191.905 46.0976C191.985 45.8495 192.077 45.6255 192.181 45.4254C192.293 45.2173 192.429 45.0373 192.589 44.8852C192.725 44.7572 192.757 44.6372 192.685 44.5251C192.621 44.3891 192.509 44.3211 192.349 44.3211H185.879C185.703 44.3211 185.495 44.3171 185.255 44.3091C185.015 44.3011 184.831 44.233 184.703 44.105C184.503 43.9209 184.383 43.7089 184.343 43.4688C184.303 43.2207 184.283 42.9647 184.283 42.7006C184.283 42.5165 184.283 42.3005 184.283 42.0524C184.283 41.7963 184.299 41.5522 184.331 41.3202C184.363 41.1121 184.411 40.9361 184.475 40.792C184.547 40.64 184.623 40.5039 184.703 40.3839C184.719 40.3199 184.775 40.2879 184.871 40.2879H185.219C185.331 40.2879 185.399 40.3039 185.423 40.3359C185.447 40.3679 185.459 40.4039 185.459 40.4439C185.459 40.5559 185.467 40.676 185.483 40.804C185.499 40.924 185.543 41.0081 185.615 41.0561C185.711 41.1201 185.775 41.1521 185.807 41.1521H186.107H192.817C193.194 41.1521 193.494 41.2201 193.718 41.3562C193.95 41.4842 194.09 41.8163 194.138 42.3525C194.154 42.4725 194.162 42.6686 194.162 42.9407C194.162 43.2047 194.162 43.4048 194.162 43.5408V43.9009ZM186.744 47.7901C186.728 47.8701 186.696 47.9421 186.648 48.0062C186.544 48.1422 186.472 48.3383 186.432 48.5943C186.391 48.8424 186.411 49.2385 186.492 49.7827L186.672 50.959C186.704 51.2871 186.712 51.5792 186.696 51.8353C186.68 52.0914 186.656 52.2834 186.624 52.4115C186.568 52.5715 186.496 52.7316 186.407 52.8916C186.319 53.0437 186.183 53.2117 185.999 53.3958C185.871 53.5238 185.719 53.6478 185.543 53.7679C185.375 53.8799 185.235 53.9679 185.123 54.032C184.955 54.128 184.815 54.152 184.703 54.104C184.671 54.088 184.627 54.044 184.571 53.9719C184.523 53.8999 184.519 53.8479 184.559 53.8159C184.639 53.6639 184.679 53.4878 184.679 53.2877C184.679 53.0797 184.679 52.8956 184.679 52.7356V49.2905C184.679 48.9464 184.711 48.6544 184.775 48.4143C184.839 48.1742 184.911 48.0062 184.991 47.9101C185.079 47.8301 185.187 47.7461 185.315 47.6581C185.443 47.562 185.543 47.498 185.615 47.466C185.743 47.418 185.875 47.386 186.011 47.37C186.155 47.354 186.315 47.346 186.492 47.346C186.564 47.346 186.632 47.378 186.696 47.442C186.712 47.474 186.732 47.534 186.756 47.622C186.78 47.7021 186.776 47.7581 186.744 47.7901Z" fill ="#66473A"/>
</svg>
