<svg width="30" height="30" viewBox="0 0 30 30" fill="none" xmlns="http://www.w3.org/2000/svg">
<path d="M23.9624 17.8258C26.8793 14.0085 26.1466 8.52985 22.3295 5.61305C18.5124 2.69624 13.0337 3.42853 10.1167 7.24586C7.49185 10.681 7.82339 15.4605 10.6972 18.5089L7.19577 23.0911L5.01381 21.4238C4.83066 21.2839 4.56913 21.3188 4.42917 21.502C4.28921 21.6851 4.32418 21.9467 4.50733 22.0866L7.0207 24.0072L8.60326 25.2165L11.1173 27.1376C11.3004 27.2775 11.562 27.2426 11.7019 27.0594C11.8419 26.8762 11.8069 26.6147 11.6238 26.4748L9.44115 24.8069L12.9426 20.2247C16.6389 22.1964 21.3375 21.2609 23.9624 17.8258ZM10.7793 7.75217C13.4171 4.30027 18.3709 3.63795 21.8228 6.27569C25.2747 8.91342 25.9371 13.8673 23.2993 17.3192C20.6614 20.7713 15.7072 21.4337 12.2555 18.7961C8.8038 16.1586 8.1416 11.2041 10.7793 7.75217ZM12.209 19.8104L8.77812 24.3003L7.85836 23.5975L11.2892 19.1076L12.209 19.8104Z" fill="black"/>
<path d="M22.4716 16.6866C24.7605 13.6912 24.1859 9.39228 21.1907 7.10351C18.1955 4.81474 13.8966 5.38968 11.6077 8.38513C9.31859 11.3808 9.89297 15.6799 12.8882 17.9687C15.8834 20.2571 20.1824 19.6823 22.4716 16.6866ZM12.2703 8.89144C14.28 6.26142 18.0544 5.75678 20.684 7.76615C23.3138 9.77568 23.8182 13.55 21.8085 16.18C19.7987 18.8102 16.024 19.3151 13.3945 17.3057C10.765 15.2961 10.2606 11.5215 12.2703 8.89144Z" fill="black"/>
<path d="M18.0986 8.92187C18.3269 8.89155 18.4873 8.68166 18.4567 8.45326C18.4264 8.22503 18.2165 8.06465 17.9881 8.09518L14.4681 8.5654C14.2399 8.59571 14.0795 8.8056 14.1101 9.034C14.1251 9.14803 14.1855 9.24529 14.2703 9.31012C14.3552 9.37495 14.4647 9.40752 14.5789 9.39225L18.0986 8.92187Z" fill="black"/>
<path d="M19.419 10.0698C19.3884 9.84141 19.1784 9.68125 18.9501 9.71156L13.8735 10.3889C13.6451 10.4194 13.4847 10.6293 13.5153 10.8577C13.5305 10.9719 13.5907 11.069 13.6756 11.1338C13.7604 11.1987 13.8699 11.2312 13.9841 11.216L19.0607 10.5386C19.2889 10.5079 19.4493 10.298 19.419 10.0698Z" fill="black"/>
</svg>
