<svg width="24" height="25" viewBox="0 0 24 25" fill="none" xmlns="http://www.w3.org/2000/svg">
<path fill-rule="evenodd" clip-rule="evenodd" d="M1 12.5546C1 6.47943 5.92487 1.55457 12 1.55457C18.0751 1.55457 23 6.47943 23 12.5546C23 18.6297 18.0751 23.5546 12 23.5546C5.92487 23.5546 1 18.6297 1 12.5546ZM12 3.55457C7.02943 3.55457 3 7.584 3 12.5546C3 17.5251 7.02943 21.5546 12 21.5546C16.9706 21.5546 21 17.5251 21 12.5546C21 7.584 16.9706 3.55457 12 3.55457ZM12 6.55457C12.5523 6.55457 13 7.00228 13 7.55457V17.5546C13 18.1068 12.5523 18.5546 12 18.5546C11.4477 18.5546 11 18.1068 11 17.5546V7.55457C11 7.00228 11.4477 6.55457 12 6.55457ZM9 8.55457C9.55228 8.55457 10 9.00228 10 9.55457V15.5546C10 16.1069 9.55228 16.5546 9 16.5546C8.44772 16.5546 8 16.1069 8 15.5546V9.55457C8 9.00228 8.44772 8.55457 9 8.55457ZM15 8.55457C15.5523 8.55457 16 9.00228 16 9.55457V15.5546C16 16.1069 15.5523 16.5546 15 16.5546C14.4477 16.5546 14 16.1069 14 15.5546V9.55457C14 9.00228 14.4477 8.55457 15 8.55457ZM6 10.5546C6.55228 10.5546 7 11.0023 7 11.5546V13.5546C7 14.1069 6.55228 14.5546 6 14.5546C5.44772 14.5546 5 14.1069 5 13.5546V11.5546C5 11.0023 5.44772 10.5546 6 10.5546ZM18 10.5546C18.5523 10.5546 19 11.0023 19 11.5546V13.5546C19 14.1069 18.5523 14.5546 18 14.5546C17.4477 14.5546 17 14.1069 17 13.5546V11.5546C17 11.0023 17.4477 10.5546 18 10.5546Z" fill="#FBF6F0"/>
</svg>
