<svg width="24" height="25" viewBox="0 0 24 25" fill="none" xmlns="http://www.w3.org/2000/svg">
<path fill-rule="evenodd" clip-rule="evenodd" d="M11.9988 6.55457C10.4837 6.55457 8.34723 6.62266 5.58136 6.76053C4.58106 6.81039 3.77186 7.5925 3.68796 8.59053C3.56111 10.0997 3.49878 11.4071 3.49878 12.5165C3.49878 13.6394 3.56264 14.9652 3.69262 16.4975C3.77623 17.4832 4.56784 18.2597 5.55495 18.3242C7.90687 18.4781 10.0544 18.5546 11.9988 18.5546C13.9434 18.5546 16.0918 18.4781 18.445 18.3241C19.4325 18.2596 20.2242 17.4826 20.3074 16.4966C20.4357 14.9762 20.4988 13.6506 20.4988 12.5165C20.4988 11.3962 20.4372 10.0889 20.3121 8.59147C20.2286 7.59305 19.4192 6.81044 18.4185 6.76058C15.6512 6.62271 13.514 6.55457 11.9988 6.55457ZM5.4818 4.76301C8.25913 4.62457 10.4342 4.55457 11.9988 4.55457C13.5635 4.55457 15.7393 4.62462 18.518 4.76305C20.5194 4.86279 22.1382 6.42798 22.3051 8.42486C22.4335 9.96145 22.4988 11.3264 22.4988 12.5165C22.4988 13.7212 22.4319 15.105 22.3003 16.6647C22.1339 18.6368 20.5504 20.1908 18.5755 20.3199C16.1873 20.4761 13.9947 20.5546 11.9988 20.5546C10.0031 20.5546 7.8113 20.4761 5.42442 20.32C3.45021 20.1909 1.86699 18.6379 1.69978 16.6666C1.56653 15.0957 1.49878 13.7112 1.49878 12.5165C1.49878 11.3361 1.56492 9.97047 1.69499 8.423C1.86279 6.42694 3.48119 4.86274 5.4818 4.76301Z" fill="#FBF6F0"/>
<path fill-rule="evenodd" clip-rule="evenodd" d="M9.49988 10.3591C9.49988 9.24354 10.7663 8.52869 11.7255 9.17363L15.0241 11.3916C15.8541 11.9496 15.8706 13.2036 15.015 13.7691L11.7163 15.9492C10.7896 16.5618 9.49988 15.908 9.49988 14.7576V10.3591ZM11.4999 11.432L13.1971 12.5732L11.4999 13.6949V11.432Z" fill="#FBF6F0"/>
</svg>
