<svg width="19" height="19" viewBox="0 0 19 19" fill="none" xmlns="http://www.w3.org/2000/svg">
<path d="M14.739 2.49169C15.9711 3.72374 16.0171 5.72136 14.7854 6.95312L12.2254 9.51311C11.9488 9.78973 11.5003 9.78973 11.2237 9.51311C10.947 9.23649 10.947 8.788 11.2237 8.51138L13.7836 5.95139C14.437 5.29802 14.4416 4.19772 13.7373 3.49343C13.033 2.78913 11.9327 2.79368 11.2793 3.44705L8.29266 6.4337L8.28812 6.4382C7.63929 7.09212 7.63639 8.18894 8.33905 8.89159C8.61567 9.16821 8.61567 9.61671 8.33905 9.89333C8.06243 10.1699 7.61393 10.1699 7.33731 9.89333C6.10526 8.66127 6.05918 6.66366 7.29094 5.4319L7.29638 5.42651L10.2776 2.44532C11.5093 1.21356 13.507 1.25964 14.739 2.49169Z" fill="#8A6B1A"/>
<path d="M2.4176 14.8015C3.64965 16.0336 5.64727 16.0796 6.87903 14.8479L9.86568 11.8612C9.87323 11.8537 9.88057 11.846 9.88771 11.8382C9.89596 11.8307 9.90407 11.823 9.91204 11.815C11.1438 10.5832 11.0977 8.58561 9.86567 7.35356C9.58905 7.07694 9.14055 7.07694 8.86393 7.35356C8.58731 7.63018 8.58731 8.07867 8.86393 8.35529C9.56823 9.05959 9.56367 10.1599 8.91031 10.8133C8.90276 10.8208 8.89542 10.8285 8.88829 10.8363C8.88003 10.8438 8.87192 10.8515 8.86395 10.8595L5.87729 13.8462C5.22393 14.4995 4.12363 14.5041 3.41934 13.7998C2.71504 13.0955 2.71959 11.9952 3.37296 11.3418L5.93295 8.78183C6.20957 8.50521 6.20957 8.05672 5.93295 7.7801C5.65632 7.50347 5.20783 7.50347 4.93121 7.7801L2.37122 10.3401C1.13947 11.5718 1.18555 13.5695 2.4176 14.8015Z" fill="#8A6B1A"/>
</svg>
