<svg width="30" height="29" viewBox="0 0 30 29" fill="none" xmlns="http://www.w3.org/2000/svg">
<path fill-rule="evenodd" clip-rule="evenodd" d="M15.1096 6.34983C15.1096 5.98014 14.6875 5.76912 14.3918 5.99093L7.93155 10.8361H5.23979C4.74424 10.8361 4.34253 11.2378 4.34253 11.7334V17.1169C4.34253 17.6124 4.74424 18.0142 5.23979 18.0142H7.93155L14.3918 22.8593C14.6875 23.0811 15.1096 22.8701 15.1096 22.5004V6.34983ZM18.3702 10.0913C18.618 9.66212 19.1667 9.51509 19.5959 9.76286C20.4143 10.2354 21.0939 10.915 21.5664 11.7334C22.0389 12.5518 22.2876 13.4801 22.2876 14.4251C22.2876 15.3701 22.0389 16.2985 21.5664 17.1169C21.0939 17.9353 20.4143 18.6149 19.5959 19.0874C19.1667 19.3352 18.618 19.1881 18.3702 18.759C18.1224 18.3298 18.2695 17.7811 18.6986 17.5333C19.2442 17.2183 19.6973 16.7652 20.0123 16.2196C20.3273 15.674 20.4931 15.0551 20.4931 14.4251C20.4931 13.7951 20.3273 13.1762 20.0123 12.6306C19.6973 12.085 19.2442 11.632 18.6986 11.3169C18.2695 11.0692 18.1224 10.5204 18.3702 10.0913ZM21.3904 6.65467C20.9612 6.4069 20.4125 6.55394 20.1647 6.98309C19.9169 7.41224 20.064 7.96099 20.4931 8.20876C21.5843 8.83877 22.4905 9.74491 23.1205 10.8361C23.7505 11.9273 24.0822 13.1651 24.0822 14.4251C24.0822 15.6851 23.7505 16.923 23.1205 18.0142C22.4905 19.1054 21.5843 20.0115 20.4931 20.6415C20.064 20.8893 19.9169 21.438 20.1647 21.8672C20.4125 22.2963 20.9612 22.4434 21.3904 22.1956C22.7544 21.4081 23.8871 20.2754 24.6746 18.9114C25.4621 17.5474 25.8767 16.0001 25.8767 14.4251C25.8767 12.8501 25.4621 11.3029 24.6746 9.93886C23.8871 8.57485 22.7544 7.44218 21.3904 6.65467Z" fill="white"/>
</svg>
