<svg width="30" height="29" viewBox="0 0 30 29" fill="none" xmlns="http://www.w3.org/2000/svg">
<path d="M16.6647 6.34961L13.5243 6.34961C11.9271 6.34961 10.3659 6.82322 9.03788 7.71054C7.70991 8.59787 6.67487 9.85906 6.06367 11.3346C5.45247 12.8102 5.29256 14.4339 5.60414 16.0003C5.91573 17.5668 6.68483 19.0057 7.81418 20.135C8.94353 21.2644 10.3824 22.0335 11.9489 22.345C12.4702 22.4487 12.9978 22.5002 13.5243 22.5002" stroke="white" stroke-width="1.79451" stroke-linecap="round"/>
<path d="M13.5242 2.76074L17.1132 6.34976L13.5242 9.93879" stroke="white" stroke-width="1.79451" stroke-linecap="round"/>
<path d="M18.0105 2.76074L21.5995 6.34976L18.0105 9.93879" stroke="white" stroke-width="1.79451" stroke-linecap="round"/>
<path d="M19.0235 14.3498V21.5278H17.5059V15.7903H17.4638L15.82 16.8207V15.4749L17.597 14.3498H19.0235ZM23.1492 21.6856C22.5463 21.6832 22.0276 21.5348 21.593 21.2404C21.1607 20.946 20.8278 20.5196 20.5941 19.9611C20.3628 19.4027 20.2483 18.7309 20.2506 17.9458C20.2506 17.1631 20.3663 16.496 20.5976 15.9445C20.8313 15.3931 21.1642 14.9737 21.5965 14.6863C22.0311 14.3965 22.5487 14.2516 23.1492 14.2516C23.7497 14.2516 24.2661 14.3965 24.6984 14.6863C25.133 14.976 25.4671 15.3966 25.7008 15.948C25.9344 16.4971 26.0501 17.1631 26.0477 17.9458C26.0477 18.7333 25.9309 19.4062 25.6973 19.9646C25.4659 20.5231 25.1341 20.9495 24.7019 21.2439C24.2696 21.5383 23.752 21.6856 23.1492 21.6856ZM23.1492 20.4273C23.5604 20.4273 23.8887 20.2205 24.1341 19.8069C24.3794 19.3933 24.5009 18.773 24.4986 17.9458C24.4986 17.4014 24.4425 16.9481 24.3303 16.5859C24.2205 16.2237 24.064 15.9515 23.8607 15.7693C23.6597 15.587 23.4226 15.4959 23.1492 15.4959C22.7403 15.4959 22.4132 15.7003 22.1678 16.1092C21.9225 16.5182 21.7986 17.1303 21.7963 17.9458C21.7963 18.4973 21.8512 18.9576 21.961 19.3268C22.0732 19.6936 22.2309 19.9693 22.4342 20.1539C22.6375 20.3362 22.8758 20.4273 23.1492 20.4273Z" fill="white"/>
</svg>
