<svg width="30" height="29" viewBox="0 0 30 29" fill="none" xmlns="http://www.w3.org/2000/svg">
<path d="M15.6991 6.34961L18.8395 6.34961C20.4366 6.34961 21.9979 6.82322 23.3259 7.71054C24.6539 8.59787 25.6889 9.85906 26.3001 11.3346C26.9113 12.8102 27.0712 14.4339 26.7596 16.0003C26.448 17.5668 25.6789 19.0057 24.5496 20.135C23.4202 21.2644 21.9814 22.0335 20.4149 22.345C19.8936 22.4487 19.3659 22.5002 18.8395 22.5002" stroke="white" stroke-width="1.79451" stroke-linecap="round"/>
<path d="M18.8394 2.76074L15.2503 6.34976L18.8394 9.93879" stroke="white" stroke-width="1.79451" stroke-linecap="round"/>
<path d="M14.353 2.76074L10.764 6.34976L14.353 9.93879" stroke="white" stroke-width="1.79451" stroke-linecap="round"/>
<path d="M8.85608 14.3498V21.5278H7.33845V15.7903H7.29639L5.65259 16.8207V15.4749L7.42958 14.3498H8.85608ZM12.9817 21.6856C12.3789 21.6832 11.8602 21.5348 11.4256 21.2404C10.9933 20.946 10.6603 20.5196 10.4267 19.9611C10.1953 19.4027 10.0808 18.7309 10.0832 17.9458C10.0832 17.1631 10.1988 16.496 10.4302 15.9445C10.6638 15.3931 10.9968 14.9737 11.4291 14.6863C11.8637 14.3965 12.3812 14.2516 12.9817 14.2516C13.5822 14.2516 14.0986 14.3965 14.5309 14.6863C14.9655 14.976 15.2996 15.3966 15.5333 15.948C15.767 16.4971 15.8826 17.1631 15.8803 17.9458C15.8803 18.7333 15.7635 19.4062 15.5298 19.9646C15.2985 20.5231 14.9667 20.9495 14.5344 21.2439C14.1021 21.5383 13.5846 21.6856 12.9817 21.6856ZM12.9817 20.4273C13.393 20.4273 13.7213 20.2205 13.9666 19.8069C14.212 19.3933 14.3335 18.773 14.3311 17.9458C14.3311 17.4014 14.275 16.9481 14.1629 16.5859C14.0531 16.2237 13.8965 15.9515 13.6932 15.7693C13.4923 15.587 13.2551 15.4959 12.9817 15.4959C12.5728 15.4959 12.2457 15.7003 12.0004 16.1092C11.755 16.5182 11.6312 17.1303 11.6288 17.9458C11.6288 18.4973 11.6838 18.9576 11.7936 19.3268C11.9057 19.6936 12.0634 19.9693 12.2667 20.1539C12.47 20.3362 12.7084 20.4273 12.9817 20.4273Z" fill="white"/>
</svg>
